<svg fill="none" height="512" viewBox="0 0 24 24" width="512" xmlns="http://www.w3.org/2000/svg"><g id="Edit / Add_Plus_Square"><path id="Vector (Stroke)" clip-rule="evenodd" d="m7.16168 3h9.67712c.5271-.00002.9818-.00003 1.3563.03057.3953.03231.7884.10364 1.1668.29641.5639.28733 1.0234.74578 1.3113 1.31083.1928.37838.2641.7716.2964 1.16694.0306.37457.0306.82932.0306 1.35646v9.67709c0 .5272 0 .9819-.0306 1.3565-.0323.3954-.1036.7886-.2964 1.167-.2875.5644-.7467 1.0238-1.3113 1.3114-.3781.1927-.7709.264-1.1657.2963-.3741.0305-.828.0305-1.3541.0305h-9.68371c-.52609 0-.98024 0-1.35442-.0305-.39491-.0323-.78797-.1036-1.16616-.2963-.56505-.2879-1.02349-.7474-1.31083-1.3113-.19277-.3784-.2641-.7715-.29641-1.1668-.0306-.3745-.03059-.8292-.03057-1.3563v-9.67712c-.00002-.52717-.00003-.98203.03057-1.35669.03229-.39537.10359-.78874.29641-1.16718.28762-.56449.74634-1.02321 1.31083-1.31083.37844-.19282.77181-.26412 1.16718-.29641.37466-.0306.82952-.03059 1.35669-.03057zm-1.19388 2.02393c-.27185.02221-.37263.0599-.42201.08507-.18816.09587-.34092.24863-.43679.43679-.02517.04938-.06286.15016-.08507.42201-.02315.28346-.02393.65585-.02393 1.2324v9.6c0 .5766.00078.9487.02393 1.232.02219.2715.05985.3722.08507.4217.09616.1887.24919.3417.43679.4373.04922.0251.14975.0627.42107.0849.28294.0231.6546.0239 1.23005.0239h9.60669c.5754 0 .9469-.0008 1.2296-.0239.2709-.0221.3714-.0597.4207-.0849.1881-.0958.3414-.2491.4373-.4374.0252-.0494.0629-.1502.0851-.4218.0231-.2834.0239-.6556.0239-1.2322v-9.60002c0-.57655-.0008-.94883-.0239-1.23216-.0222-.27167-.0599-.37239-.0851-.42183-.0956-.1876-.2486-.34063-.4373-.43679-.0495-.02522-.1502-.06288-.4217-.08507-.2833-.02315-.6554-.02393-1.232-.02393h-9.6c-.57655 0-.94894.00078-1.2324.02393zm6.0322 1.97607c.5523 0 1 .44772 1 1v3h3c.5523 0 1 .4477 1 1s-.4477 1-1 1h-3v3c0 .5523-.4477 1-1 1s-1-.4477-1-1v-3h-3c-.55228 0-1-.4477-1-1s.44772-1 1-1h3v-3c0-.55228.4477-1 1-1z" fill="rgb(0,0,0)" fill-rule="evenodd"/></g></svg>