<svg id="Line" enable-background="new 0 0 32 32" height="512" fill="#111827" viewBox="0 0 32 32" width="512" xmlns="http://www.w3.org/2000/svg"><path id="XMLID_109_" d="m29.294 8.044-13-4c-.191-.06-.396-.06-.588 0l-13 4c-.42.129-.706.517-.706.956v18c0 .552.448 1 1 1h26c.552 0 1-.448 1-1v-18c0-.439-.286-.827-.706-.956zm-14.294 17.956h-3v-2h3zm-1-4v-2h3v2c-1.795 0 1.145 0-3 0zm6 4h-3v-2h3zm4 0h-2v-3c0-.552-.448-1-1-1h-2v-3c0-.552-.448-1-1-1h-5c-.552 0-1 .448-1 1v3h-1c-.552 0-1 .448-1 1v3h-2v-12h16zm4 0h-2v-13c0-.552-.448-1-1-1h-18c-.552 0-1 .448-1 1v13h-2v-16.261l12-3.692 12 3.692z"/></svg>